<?xml version="1.0" encoding="UTF-8" standalone="no"?>
<!-- Generator: Adobe Illustrator 9.0, SVG Export Plug-In  -->

<svg
   xmlns:dc="http://purl.org/dc/elements/1.1/"
   xmlns:cc="http://creativecommons.org/ns#"
   xmlns:rdf="http://www.w3.org/1999/02/22-rdf-syntax-ns#"
   xmlns:svg="http://www.w3.org/2000/svg"
   xmlns="http://www.w3.org/2000/svg"
   xmlns:sodipodi="http://sodipodi.sourceforge.net/DTD/sodipodi-0.dtd"
   xmlns:inkscape="http://www.inkscape.org/namespaces/inkscape"
   width="1116.852pt"
   height="1116.85pt"
   viewBox="0 0 1116.852 1116.85"
   xml:space="preserve"
   id="svg2338"
   sodipodi:version="0.32"
   inkscape:version="0.47 r22583"
   sodipodi:docname="P2.svg"
   inkscape:output_extension="org.inkscape.output.svg.inkscape"
   version="1.1"><metadata
   id="metadata2382"><rdf:RDF><cc:Work
       rdf:about=""><dc:format>image/svg+xml</dc:format><dc:type
         rdf:resource="http://purl.org/dc/dcmitype/StillImage" /><dc:title></dc:title></cc:Work></rdf:RDF></metadata><defs
   id="defs2380"><inkscape:perspective
     sodipodi:type="inkscape:persp3d"
     inkscape:vp_x="0 : 698.03125 : 1"
     inkscape:vp_y="0 : 1000 : 0"
     inkscape:vp_z="1396.0651 : 698.03125 : 1"
     inkscape:persp3d-origin="698.03253 : 465.35417 : 1"
     id="perspective4694" /><inkscape:perspective
     id="perspective4664"
     inkscape:persp3d-origin="0.5 : 0.33333333 : 1"
     inkscape:vp_z="1 : 0.5 : 1"
     inkscape:vp_y="0 : 1000 : 0"
     inkscape:vp_x="0 : 0.5 : 1"
     sodipodi:type="inkscape:persp3d" /></defs><sodipodi:namedview
   inkscape:window-height="725"
   inkscape:window-width="1280"
   inkscape:pageshadow="2"
   inkscape:pageopacity="0.0"
   guidetolerance="10.0"
   gridtolerance="10.0"
   objecttolerance="10.0"
   borderopacity="1.0"
   bordercolor="#666666"
   pagecolor="#ffffff"
   id="base"
   inkscape:zoom="0.32734924"
   inkscape:cx="698.03253"
   inkscape:cy="698.03125"
   inkscape:window-x="0"
   inkscape:window-y="24"
   inkscape:current-layer="Layer_x0020_1"
   showgrid="false"
   inkscape:window-maximized="1" />
	<g
   id="Layer_x0020_1"
   style="fill-rule:nonzero;clip-rule:nonzero;fill:#F6921E;stroke:#000000;stroke-miterlimit:4;">
		<path
   style="stroke:none;"
   d="M1116.852,1116.85H0V0h1116.852v1116.85z"
   id="path2341" />
		<path
   style="fill:#FFFFFF;stroke:none;"
   d="M1102.678,1102.678H14.173V14.173h1088.504v1088.504z"
   id="path2343" />
		<g
   style="stroke:none;"
   id="g2345">
			<path
   d="M501.983,555.258c0.873,0.571,2.418,1.175,3.896,1.175c2.149,0,3.157-1.075,3.157-2.418c0-1.411-0.84-2.183-3.023-2.989c-2.922-1.041-4.299-2.653-4.299-4.601c0-2.62,2.116-4.769,5.609-4.769c1.646,0,3.09,0.47,3.997,1.008l-0.739,2.149     c-0.638-0.403-1.814-0.94-3.325-0.94c-1.746,0-2.72,1.007-2.72,2.216c0,1.344,0.974,1.948,3.09,2.754c2.821,1.075,4.265,2.485,4.265,4.904c0,2.854-2.216,4.903-6.079,4.903c-1.78,0-3.426-0.47-4.568-1.142l0.739-2.25z"
   id="path2347" />
			<path
   d="M527.102,554.384c0,1.411,0.067,2.788,0.269,3.896h-2.687l-0.235-2.049h-0.101c-0.907,1.276-2.653,2.418-4.971,2.418c-3.292,0-4.971-2.317-4.971-4.668c0-3.929,3.493-6.079,9.773-6.045v-0.335c0-1.344-0.37-3.762-3.694-3.762     c-1.511,0-3.09,0.47-4.232,1.209l-0.671-1.948c1.343-0.873,3.291-1.444,5.34-1.444c4.971,0,6.179,3.392,6.179,6.65v6.079z M524.247,549.985c-3.224-0.067-6.885,0.504-6.885,3.661c0,1.915,1.276,2.821,2.788,2.821c2.116,0,3.459-1.343,3.929-2.72     c0.101-0.302,0.168-0.638,0.168-0.94v-2.821z"
   id="path2349" />
			<path
   d="M532.17,558.28v-14.005h-2.284v-2.25h2.284v-0.772c0-2.284,0.504-4.366,1.881-5.676c1.108-1.075,2.586-1.511,3.963-1.511c1.041,0,1.948,0.235,2.519,0.47l-0.402,2.284c-0.437-0.202-1.041-0.37-1.881-0.37c-2.52,0-3.157,2.217-3.157,4.702v0.873h3.93v2.25     h-3.93v14.005h-2.922z"
   id="path2351" />
			<path
   d="M542.882,550.69c0.066,3.997,2.619,5.643,5.574,5.643c2.116,0,3.393-0.37,4.501-0.84l0.504,2.116c-1.041,0.47-2.821,1.041-5.407,1.041c-5.004,0-7.993-3.325-7.993-8.228s2.888-8.766,7.624-8.766c5.306,0,6.717,4.668,6.717,7.657     c0,0.604-0.067,1.075-0.102,1.377h-11.418z M551.546,548.574c0.034-1.881-0.772-4.803-4.097-4.803c-2.989,0-4.299,2.754-4.534,4.803h8.631z"
   id="path2353" />
			<path
   d="M576.595,554.384c0,1.411,0.067,2.788,0.269,3.896h-2.687l-0.235-2.049h-0.101c-0.906,1.276-2.653,2.418-4.971,2.418c-3.291,0-4.97-2.317-4.97-4.668c0-3.929,3.492-6.079,9.772-6.045v-0.335c0-1.344-0.369-3.762-3.694-3.762     c-1.511,0-3.09,0.47-4.231,1.209l-0.672-1.948c1.344-0.873,3.292-1.444,5.34-1.444c4.971,0,6.18,3.392,6.18,6.65v6.079z M573.74,549.985c-3.224-0.067-6.885,0.504-6.885,3.661c0,1.915,1.276,2.821,2.787,2.821c2.116,0,3.46-1.343,3.93-2.72     c0.101-0.302,0.168-0.638,0.168-0.94v-2.821z"
   id="path2355" />
			<path
   d="M581.361,547.097c0-1.915-0.034-3.56-0.135-5.071h2.586l0.101,3.19h0.135c0.738-2.183,2.519-3.56,4.5-3.56c0.336,0,0.571,0.034,0.84,0.101v2.787c-0.303-0.067-0.604-0.101-1.008-0.101c-2.082,0-3.56,1.579-3.963,3.795     c-0.067,0.403-0.135,0.874-0.135,1.377v8.665h-2.921v-11.184z"
   id="path2357" />
			<path
   d="M593.651,550.69c0.066,3.997,2.619,5.643,5.574,5.643c2.116,0,3.393-0.37,4.501-0.84l0.504,2.116c-1.041,0.47-2.821,1.041-5.407,1.041c-5.004,0-7.993-3.325-7.993-8.228s2.888-8.766,7.624-8.766c5.306,0,6.717,4.668,6.717,7.657     c0,0.604-0.067,1.075-0.102,1.377h-11.418z M602.315,548.574c0.034-1.881-0.772-4.803-4.097-4.803c-2.989,0-4.299,2.754-4.534,4.803h8.631z"
   id="path2359" />
			<path
   d="M620.246,554.384c0,1.411,0.067,2.788,0.269,3.896h-2.687l-0.235-2.049h-0.101c-0.906,1.276-2.653,2.418-4.971,2.418c-3.291,0-4.97-2.317-4.97-4.668c0-3.929,3.492-6.079,9.772-6.045v-0.335c0-1.344-0.369-3.762-3.694-3.762     c-1.511,0-3.09,0.47-4.231,1.209l-0.672-1.948c1.344-0.873,3.292-1.444,5.34-1.444c4.971,0,6.18,3.392,6.18,6.65v6.079z M617.392,549.985c-3.224-0.067-6.885,0.504-6.885,3.661c0,1.915,1.276,2.821,2.787,2.821c2.116,0,3.46-1.343,3.93-2.72     c0.101-0.302,0.168-0.638,0.168-0.94v-2.821z"
   id="path2361" />
		</g>
		
		
		
		
	<g
   transform="matrix(2.8346458,0,0,2.8346458,16.41068,16.08576)"
   id="g4628"><path
     style="fill:none;stroke:#0000ff;stroke-width:0.003"
     d="M 0,0 335.5,0"
     id="path4630" /><path
     style="fill:none;stroke:#0000ff;stroke-width:0.003"
     d="m 335.5,55.916667 -335.5,0"
     id="path4632" /><path
     style="fill:none;stroke:#0000ff;stroke-width:0.003"
     d="m 335.5,111.83333 -335.5,0"
     id="path4634" /><path
     style="fill:none;stroke:#0000ff;stroke-width:0.003"
     d="M 335.5,167.75 0,167.75"
     id="path4636" /><path
     style="fill:none;stroke:#0000ff;stroke-width:0.003"
     d="m 335.5,223.66667 -335.5,0"
     id="path4638" /><path
     style="fill:none;stroke:#0000ff;stroke-width:0.003"
     d="m 335.5,279.58333 -335.5,0"
     id="path4640" /><path
     style="fill:none;stroke:#0000ff;stroke-width:0.003"
     d="M 335.5,335.5 0,335.5"
     id="path4642" /><path
     style="fill:none;stroke:#0000ff;stroke-width:0.003"
     d="M 0,0 0,335.5"
     id="path4644" /><path
     style="fill:none;stroke:#0000ff;stroke-width:0.003"
     d="m 335.5,0 0,335.5"
     id="path4646" /></g></g>
</svg>