<?xml version="1.0" encoding="UTF-8" standalone="no"?>
<svg
   xmlns:dc="http://purl.org/dc/elements/1.1/"
   xmlns:cc="http://creativecommons.org/ns#"
   xmlns:rdf="http://www.w3.org/1999/02/22-rdf-syntax-ns#"
   xmlns:svg="http://www.w3.org/2000/svg"
   xmlns="http://www.w3.org/2000/svg"
   xmlns:sodipodi="http://sodipodi.sourceforge.net/DTD/sodipodi-0.dtd"
   xmlns:inkscape="http://www.inkscape.org/namespaces/inkscape"
   viewBox="0 0 295 295"
   height="295mm"
   width="295mm"
   id="svg4887"
   version="1.1"
   inkscape:version="0.48.0 r9654"
   sodipodi:docname="square-acrylic-panel.svg">
  <metadata
     id="metadata4933">
    <rdf:RDF>
      <cc:Work
         rdf:about="">
        <dc:format>image/svg+xml</dc:format>
        <dc:type
           rdf:resource="http://purl.org/dc/dcmitype/StillImage" />
      </cc:Work>
    </rdf:RDF>
  </metadata>
  <defs
     id="defs4931" />
  <sodipodi:namedview
     pagecolor="#ffffff"
     bordercolor="#666666"
     borderopacity="1"
     objecttolerance="10"
     gridtolerance="10"
     guidetolerance="10"
     inkscape:pageopacity="0"
     inkscape:pageshadow="2"
     inkscape:window-width="640"
     inkscape:window-height="480"
     id="namedview4929"
     showgrid="false"
     inkscape:zoom="0.2563917"
     inkscape:cx="522.63782"
     inkscape:cy="522.63782"
     inkscape:window-x="0"
     inkscape:window-y="24"
     inkscape:window-maximized="0"
     inkscape:current-layer="svg4887" />
  <g
     id="g4889">
    <g
       transform="translate(13, 10)"
       id="g4891">
      <path
         style="fill:none;stroke-width:0.025;stroke:rgb(255,0,0);"
         d="m 0 0 a 3,3 0 0 0 -3,3 v 33.285714285714285714 a 3,3 0 0 0 3,3 a 3,3 0 0 0 -3,3 v 33.285714285714285714 a 3,3 0 0 0 3,3 a 3,3 0 0 0 -3,3 v 33.285714285714285714 a 3,3 0 0 0 3,3 a 3,3 0 0 0 -3,3 v 33.285714285714285714 a 3,3 0 0 0 3,3 a 3,3 0 0 0 -3,3 v 33.285714285714285714 a 3,3 0 0 0 3,3 a 3,3 0 0 0 -3,3 v 33.285714285714285714 a 3,3 0 0 0 3,3 a 3,3 0 0 0 -3,3 v 33.285714285714285714 a 3,3 0 0 0 3,3"
         id="path4893" />
    </g>
    <path
       style="fill:none;stroke-width:0.025;stroke:rgb(255,0,0);"
       d="M282 284.999999999999999998 L13 284.999999999999999998"
       id="path4895" />
    <path
       style="fill:none;stroke-width:0.025;stroke:rgb(255,0,0);"
       d="M282 245.714285714285714284 L13 245.714285714285714284"
       id="path4897" />
    <path
       style="fill:none;stroke-width:0.025;stroke:rgb(255,0,0);"
       d="M282 206.42857142857142857 L13 206.42857142857142857"
       id="path4899" />
    <path
       style="fill:none;stroke-width:0.025;stroke:rgb(255,0,0);"
       d="M282 167.142857142857142856 L13 167.142857142857142856"
       id="path4901" />
    <path
       style="fill:none;stroke-width:0.025;stroke:rgb(255,0,0);"
       d="M282 127.857142857142857142 L13 127.857142857142857142"
       id="path4903" />
    <path
       style="fill:none;stroke-width:0.025;stroke:rgb(255,0,0);"
       d="M282 88.571428571428571428 L13 88.571428571428571428"
       id="path4905" />
    <path
       style="fill:none;stroke-width:0.025;stroke:rgb(255,0,0);"
       d="M282 49.285714285714285714 L13 49.285714285714285714"
       id="path4907" />
    <path
       style="fill:none;stroke-width:0.025;stroke:rgb(255,0,0);"
       d="M13 10 L282 10"
       id="path4909" />
    <g
       transform="translate(281.999999999999999998, 10) scale(-1,1)"
       id="g4911">
      <path
         style="fill:none;stroke-width:0.025;stroke:rgb(255,0,0);"
         d="m 0 0 a 3,3 0 0 0 -3,3 v 33.285714285714285714 a 3,3 0 0 0 3,3 a 3,3 0 0 0 -3,3 v 33.285714285714285714 a 3,3 0 0 0 3,3 a 3,3 0 0 0 -3,3 v 33.285714285714285714 a 3,3 0 0 0 3,3 a 3,3 0 0 0 -3,3 v 33.285714285714285714 a 3,3 0 0 0 3,3 a 3,3 0 0 0 -3,3 v 33.285714285714285714 a 3,3 0 0 0 3,3 a 3,3 0 0 0 -3,3 v 33.285714285714285714 a 3,3 0 0 0 3,3 a 3,3 0 0 0 -3,3 v 33.285714285714285714 a 3,3 0 0 0 3,3"
         id="path4913" />
    </g>
    <g
       style="font-size:2px;text-anchor:end;fill:#000000;stroke:none;font-family:FreeMono"
       id="text4915">
      <path
         d="m 283.17478,282.41 0,-0.036 -0.582,0 0,0.07 c 0,0.0373 -0.0133,0.056 -0.04,0.056 -0.028,0 -0.042,-0.0187 -0.042,-0.056 l 0,-0.152 0.746,0 0,0.13 -0.326,1.038 c -0.009,0.028 -0.0227,0.042 -0.04,0.042 -0.0107,0 -0.02,-0.004 -0.028,-0.012 -0.008,-0.008 -0.012,-0.0173 -0.012,-0.028 0,-0.007 0.001,-0.0153 0.004,-0.026 l 0.32,-1.026"
         style="font-size:2px;text-anchor:end;fill:#000000;stroke:none;font-family:FreeMono"
         id="path4936" />
    </g>
    <g
       style="font-size:2px;text-anchor:end;fill:#000000;stroke:none;font-family:FreeMono"
       id="text4917">
      <path
         d="m 283.27678,243.08828 c -0.004,0 -0.0173,-0.005 -0.04,-0.014 -0.0213,-0.009 -0.0507,-0.014 -0.088,-0.014 -0.076,0 -0.15067,0.022 -0.224,0.066 -0.0733,0.044 -0.13467,0.10333 -0.184,0.178 -0.06,0.0947 -0.09,0.208 -0.09,0.34 0,0.007 0.001,0.0353 0.004,0.086 0.0813,-0.16267 0.192,-0.244 0.332,-0.244 0.0907,0 0.16867,0.0367 0.234,0.11 0.0667,0.0733 0.1,0.16067 0.1,0.262 0,0.108 -0.0333,0.19933 -0.1,0.274 -0.0667,0.0747 -0.14867,0.112 -0.246,0.112 -0.11867,0 -0.21533,-0.0553 -0.29,-0.166 -0.0747,-0.11067 -0.112,-0.25333 -0.112,-0.428 0,-0.19867 0.056,-0.36 0.168,-0.484 0.11333,-0.12533 0.252,-0.188 0.416,-0.188 0.0427,0 0.0793,0.007 0.11,0.022 0.032,0.0133 0.048,0.0293 0.048,0.048 0,0.0107 -0.004,0.02 -0.012,0.028 -0.007,0.008 -0.0153,0.012 -0.026,0.012 m -0.61,0.75 c 0.028,0.108 0.0667,0.18933 0.116,0.244 0.0493,0.0533 0.114,0.08 0.194,0.08 0.0747,0 0.13667,-0.0293 0.186,-0.088 0.0507,-0.0587 0.076,-0.13067 0.076,-0.216 0,-0.0787 -0.0253,-0.14667 -0.076,-0.204 -0.0493,-0.0573 -0.10867,-0.086 -0.178,-0.086 -0.0333,0 -0.0667,0.008 -0.1,0.024 -0.032,0.016 -0.058,0.0327 -0.078,0.05 -0.02,0.016 -0.042,0.0407 -0.066,0.074 -0.0227,0.032 -0.0373,0.0533 -0.044,0.064 -0.005,0.0107 -0.0153,0.03 -0.03,0.058"
         style="font-size:2px;text-anchor:end;fill:#000000;stroke:none;font-family:FreeMono"
         id="path4939" />
    </g>
    <g
       style="font-size:2px;text-anchor:end;fill:#000000;stroke:none;font-family:FreeMono"
       id="text4919">
      <path
         d="m 282.93278,204.22057 c -0.052,0 -0.0987,0.007 -0.14,0.02 -0.0413,0.0133 -0.0747,0.0273 -0.1,0.042 -0.0253,0.0133 -0.044,0.02 -0.056,0.02 -0.0253,0 -0.038,-0.0147 -0.038,-0.044 l 0,-0.538 0.564,0 c 0.0373,0 0.056,0.0133 0.056,0.04 0,0.028 -0.0187,0.042 -0.056,0.042 l -0.482,0 0,0.396 c 0.0973,-0.04 0.18533,-0.06 0.264,-0.06 0.10267,0 0.18733,0.0367 0.254,0.11 0.0667,0.0733 0.1,0.166 0.1,0.278 0,0.12667 -0.0387,0.23067 -0.116,0.312 -0.076,0.08 -0.17333,0.12 -0.292,0.12 -0.052,0 -0.104,-0.008 -0.156,-0.024 -0.0507,-0.016 -0.0933,-0.0347 -0.128,-0.056 -0.0333,-0.0227 -0.0607,-0.0447 -0.082,-0.066 -0.0213,-0.0213 -0.032,-0.0373 -0.032,-0.048 0,-0.0107 0.004,-0.02 0.012,-0.028 0.008,-0.008 0.0173,-0.012 0.028,-0.012 0.009,0 0.028,0.0127 0.056,0.038 0.028,0.0253 0.068,0.0507 0.12,0.076 0.052,0.0253 0.11133,0.038 0.178,0.038 0.0973,0 0.17667,-0.0327 0.238,-0.098 0.0613,-0.0653 0.092,-0.15066 0.092,-0.256 0,-0.0893 -0.0267,-0.162 -0.08,-0.218 -0.052,-0.056 -0.12,-0.084 -0.204,-0.084"
         style="font-size:2px;text-anchor:end;fill:#000000;stroke:none;font-family:FreeMono"
         id="path4942" />
    </g>
    <g
       style="font-size:2px;text-anchor:end;fill:#000000;stroke:none;font-family:FreeMono"
       id="text4921">
      <path
         d="m 283.05278,165.30485 -0.542,0 0,-0.094 0.456,-0.776 0.168,0 0,0.788 0.068,0 c 0.036,0 0.054,0.014 0.054,0.042 0,0.0267 -0.018,0.04 -0.054,0.04 l -0.068,0 0,0.256 0.068,0 c 0.036,0 0.054,0.0133 0.054,0.04 0,0.028 -0.018,0.042 -0.054,0.042 l -0.302,0 c -0.036,0 -0.054,-0.014 -0.054,-0.042 0,-0.0267 0.018,-0.04 0.054,-0.04 l 0.152,0 0,-0.256 m 0,-0.082 0,-0.706 -0.048,0 -0.416,0.706 0.464,0"
         style="font-size:2px;text-anchor:end;fill:#000000;stroke:none;font-family:FreeMono"
         id="path4945" />
    </g>
    <g
       style="font-size:2px;text-anchor:end;fill:#000000;stroke:none;font-family:FreeMono"
       id="text4923">
      <path
         d="m 282.55078,125.30114 c 0,-0.0147 0.0127,-0.0353 0.038,-0.062 0.0267,-0.0267 0.0687,-0.0527 0.126,-0.078 0.0573,-0.0267 0.12,-0.04 0.188,-0.04 0.1,0 0.18333,0.03 0.25,0.09 0.068,0.0587 0.102,0.13133 0.102,0.218 0,0.0573 -0.018,0.11 -0.054,0.158 -0.0347,0.048 -0.082,0.0847 -0.142,0.11 -0.001,0 -0.005,0.001 -0.01,0.004 0.0787,0.032 0.14,0.0767 0.184,0.134 0.044,0.056 0.066,0.118 0.066,0.186 0,0.10133 -0.0413,0.188 -0.124,0.26 -0.0813,0.0707 -0.17933,0.106 -0.294,0.106 -0.0787,0 -0.16333,-0.0193 -0.254,-0.058 -0.0893,-0.04 -0.134,-0.0767 -0.134,-0.11 0,-0.009 0.004,-0.018 0.012,-0.026 0.008,-0.008 0.0167,-0.012 0.026,-0.012 0.009,0 0.028,0.0107 0.056,0.032 0.028,0.02 0.068,0.0407 0.12,0.062 0.052,0.02 0.11067,0.03 0.176,0.03 0.0907,0 0.16867,-0.028 0.234,-0.084 0.0667,-0.056 0.1,-0.12267 0.1,-0.2 0,-0.0787 -0.0353,-0.146 -0.106,-0.202 -0.0707,-0.0573 -0.15467,-0.086 -0.252,-0.086 -0.036,0 -0.054,-0.014 -0.054,-0.042 0,-0.0267 0.018,-0.04 0.054,-0.04 0.0853,0 0.14333,-0.007 0.174,-0.022 0.0427,-0.0187 0.0767,-0.046 0.102,-0.082 0.0253,-0.036 0.038,-0.0747 0.038,-0.116 0,-0.0653 -0.026,-0.11933 -0.078,-0.162 -0.052,-0.044 -0.11667,-0.066 -0.194,-0.066 -0.056,0 -0.104,0.007 -0.144,0.022 -0.0387,0.0133 -0.066,0.0287 -0.082,0.046 -0.0147,0.0173 -0.0293,0.0333 -0.044,0.048 -0.0147,0.0133 -0.028,0.02 -0.04,0.02 -0.0107,0 -0.02,-0.003 -0.028,-0.01 -0.008,-0.008 -0.012,-0.0173 -0.012,-0.028"
         style="font-size:2px;text-anchor:end;fill:#000000;stroke:none;font-family:FreeMono"
         id="path4948" />
    </g>
    <g
       style="font-size:2px;text-anchor:end;fill:#000000;stroke:none;font-family:FreeMono"
       id="text4925">
      <path
         d="m 282.50878,86.131426 c 0,-0.06 0.036,-0.123999 0.108,-0.192 0.0733,-0.06933 0.16133,-0.103998 0.264,-0.104 0.0973,2e-6 0.18267,0.03467 0.256,0.104 0.0747,0.06934 0.112,0.149335 0.112,0.24 0,0.05867 -0.0173,0.112668 -0.052,0.162 -0.0333,0.04933 -0.112,0.134668 -0.236,0.256 -0.17067,0.168001 -0.30867,0.296667 -0.414,0.386 l 0,0.006 0.628,0 0,-0.072 c 0,-0.036 0.014,-0.054 0.042,-0.054 0.0267,10e-7 0.04,0.018 0.04,0.054 l 0,0.154 -0.788,0 0,-0.12 0.472,-0.444 c 0.0933,-0.092 0.154,-0.158666 0.182,-0.2 0.0293,-0.04133 0.044,-0.08467 0.044,-0.13 0,-0.06933 -0.0287,-0.129999 -0.086,-0.182 -0.0573,-0.052 -0.124,-0.078 -0.2,-0.078 -0.068,2e-6 -0.13,0.02 -0.186,0.06 -0.0547,0.04 -0.09,0.09 -0.106,0.15 -0.008,0.02667 -0.022,0.04 -0.042,0.04 -0.009,10e-7 -0.018,-0.0033 -0.026,-0.01 -0.008,-0.008 -0.012,-0.01667 -0.012,-0.026"
         style="font-size:2px;text-anchor:end;fill:#000000;stroke:none;font-family:FreeMono"
         id="path4951" />
    </g>
    <g
       style="font-size:2px;text-anchor:end;fill:#000000;stroke:none;font-family:FreeMono"
       id="text4927">
      <path
         d="m 282.94278,46.561713 0,1.142 0.278,0 c 0.036,0 0.054,0.01333 0.054,0.04 0,0.028 -0.018,0.042 -0.054,0.042 l -0.638,0 c -0.0373,0 -0.056,-0.014 -0.056,-0.042 0,-0.02667 0.0187,-0.04 0.056,-0.04 l 0.278,0 0,-1.032 -0.264,0.084 c -0.016,0.004 -0.0253,0.006 -0.028,0.006 -0.009,10e-7 -0.018,-0.004 -0.026,-0.012 -0.008,-0.0093 -0.012,-0.01866 -0.012,-0.028 0,-0.02 0.014,-0.03467 0.042,-0.044 l 0.37,-0.116"
         style="font-size:2px;text-anchor:end;fill:#000000;stroke:none;font-family:FreeMono"
         id="path4954" />
    </g>
  </g>
</svg>
