<?xml version="1.0" encoding="UTF-8" standalone="no"?>
<svg
   xmlns:dc="http://purl.org/dc/elements/1.1/"
   xmlns:cc="http://creativecommons.org/ns#"
   xmlns:rdf="http://www.w3.org/1999/02/22-rdf-syntax-ns#"
   xmlns:svg="http://www.w3.org/2000/svg"
   xmlns="http://www.w3.org/2000/svg"
   xmlns:sodipodi="http://sodipodi.sourceforge.net/DTD/sodipodi-0.dtd"
   xmlns:inkscape="http://www.inkscape.org/namespaces/inkscape"
   viewBox="0 0 295 295"
   height="295mm"
   width="295mm"
   id="svg9365"
   version="1.1"
   inkscape:version="0.48.0 r9654"
   sodipodi:docname="square-acrylic-panel.svg">
  <metadata
     id="metadata9411">
    <rdf:RDF>
      <cc:Work
         rdf:about="">
        <dc:format>image/svg+xml</dc:format>
        <dc:type
           rdf:resource="http://purl.org/dc/dcmitype/StillImage" />
      </cc:Work>
    </rdf:RDF>
  </metadata>
  <defs
     id="defs9409" />
  <sodipodi:namedview
     pagecolor="#ffffff"
     bordercolor="#666666"
     borderopacity="1"
     objecttolerance="10"
     gridtolerance="10"
     guidetolerance="10"
     inkscape:pageopacity="0"
     inkscape:pageshadow="2"
     inkscape:window-width="640"
     inkscape:window-height="480"
     id="namedview9407"
     showgrid="false"
     inkscape:zoom="0.2563917"
     inkscape:cx="522.63782"
     inkscape:cy="522.63782"
     inkscape:window-x="0"
     inkscape:window-y="24"
     inkscape:window-maximized="0"
     inkscape:current-layer="svg9365" />
  <g
     id="g9367">
    <g
       transform="translate(13, 10)"
       id="g9369">
      <path
         style="fill:none;stroke-width:0.025;stroke:rgb(255,0,0);"
         d="m 0 0 a 3,3 0 0 0 -3,3 v 33.285714285714285714 a 3,3 0 0 0 3,3 a 3,3 0 0 0 -3,3 v 33.285714285714285714 a 3,3 0 0 0 3,3 a 3,3 0 0 0 -3,3 v 33.285714285714285714 a 3,3 0 0 0 3,3 a 3,3 0 0 0 -3,3 v 33.285714285714285714 a 3,3 0 0 0 3,3 a 3,3 0 0 0 -3,3 v 33.285714285714285714 a 3,3 0 0 0 3,3 a 3,3 0 0 0 -3,3 v 33.285714285714285714 a 3,3 0 0 0 3,3 a 3,3 0 0 0 -3,3 v 33.285714285714285714 a 3,3 0 0 0 3,3"
         id="path9371" />
    </g>
    <path
       style="fill:none;stroke-width:0.025;stroke:rgb(255,0,0);"
       d="M282 284.999999999999999998 L13 284.999999999999999998"
       id="path9373" />
    <path
       style="fill:none;stroke-width:0.025;stroke:rgb(255,0,0);"
       d="M282 245.714285714285714284 L13 245.714285714285714284"
       id="path9375" />
    <path
       style="fill:none;stroke-width:0.025;stroke:rgb(255,0,0);"
       d="M282 206.42857142857142857 L13 206.42857142857142857"
       id="path9377" />
    <path
       style="fill:none;stroke-width:0.025;stroke:rgb(255,0,0);"
       d="M282 167.142857142857142856 L13 167.142857142857142856"
       id="path9379" />
    <path
       style="fill:none;stroke-width:0.025;stroke:rgb(255,0,0);"
       d="M282 127.857142857142857142 L13 127.857142857142857142"
       id="path9381" />
    <path
       style="fill:none;stroke-width:0.025;stroke:rgb(255,0,0);"
       d="M282 88.571428571428571428 L13 88.571428571428571428"
       id="path9383" />
    <path
       style="fill:none;stroke-width:0.025;stroke:rgb(255,0,0);"
       d="M282 49.285714285714285714 L13 49.285714285714285714"
       id="path9385" />
    <path
       style="fill:none;stroke-width:0.025;stroke:rgb(255,0,0);"
       d="M13 10 L282 10"
       id="path9387" />
    <g
       transform="translate(281.999999999999999998, 10) scale(-1,1)"
       id="g9389">
      <path
         style="fill:none;stroke-width:0.025;stroke:rgb(255,0,0);"
         d="m 0 0 a 3,3 0 0 0 -3,3 v 33.285714285714285714 a 3,3 0 0 0 3,3 a 3,3 0 0 0 -3,3 v 33.285714285714285714 a 3,3 0 0 0 3,3 a 3,3 0 0 0 -3,3 v 33.285714285714285714 a 3,3 0 0 0 3,3 a 3,3 0 0 0 -3,3 v 33.285714285714285714 a 3,3 0 0 0 3,3 a 3,3 0 0 0 -3,3 v 33.285714285714285714 a 3,3 0 0 0 3,3 a 3,3 0 0 0 -3,3 v 33.285714285714285714 a 3,3 0 0 0 3,3 a 3,3 0 0 0 -3,3 v 33.285714285714285714 a 3,3 0 0 0 3,3"
         id="path9391" />
    </g>
    <g
       style="font-size:3.75px;text-anchor:end;fill:none;stroke:#0000ff;stroke-width:0.025;font-family:FreeMono"
       id="text9393">
      <path
         d="m 282.89021,281.45625 0,-0.0675 -1.09125,0 0,0.13125 c 0,0.07 -0.025,0.105 -0.075,0.105 -0.0525,0 -0.0787,-0.035 -0.0787,-0.105 l 0,-0.285 1.39875,0 0,0.24375 -0.61125,1.94625 c -0.0175,0.0525 -0.0425,0.0788 -0.075,0.0788 -0.02,0 -0.0375,-0.008 -0.0525,-0.0225 -0.015,-0.015 -0.0225,-0.0325 -0.0225,-0.0525 0,-0.0125 0.002,-0.0288 0.007,-0.0487 l 0.6,-1.92375"
         style="font-size:3.75px;text-anchor:end;fill:none;stroke:#0000ff;stroke-width:0.025;font-family:FreeMono"
         id="path9414" />
    </g>
    <g
       style="font-size:3.75px;text-anchor:end;fill:none;stroke:#0000ff;stroke-width:0.025;font-family:FreeMono"
       id="text9395">
      <path
         d="m 283.08146,242.10303 c -0.007,0 -0.0325,-0.009 -0.075,-0.0262 -0.04,-0.0175 -0.095,-0.0263 -0.165,-0.0263 -0.1425,0 -0.2825,0.0412 -0.42,0.12375 -0.1375,0.0825 -0.2525,0.19375 -0.345,0.33375 -0.1125,0.1775 -0.16875,0.39 -0.16875,0.6375 0,0.0125 0.002,0.0662 0.007,0.16125 0.1525,-0.305 0.36,-0.4575 0.6225,-0.4575 0.17,0 0.31625,0.0687 0.43875,0.20625 0.125,0.1375 0.1875,0.30125 0.1875,0.49125 0,0.2025 -0.0625,0.37375 -0.1875,0.51375 -0.125,0.14 -0.27875,0.21 -0.46125,0.21 -0.2225,0 -0.40375,-0.10375 -0.54375,-0.31125 -0.14,-0.2075 -0.21,-0.475 -0.21,-0.8025 0,-0.3725 0.105,-0.675 0.315,-0.9075 0.2125,-0.235 0.4725,-0.3525 0.78,-0.3525 0.08,0 0.14875,0.0137 0.20625,0.0412 0.06,0.025 0.09,0.055 0.09,0.09 0,0.02 -0.007,0.0375 -0.0225,0.0525 -0.0125,0.015 -0.0288,0.0225 -0.0487,0.0225 m -1.14375,1.40625 c 0.0525,0.2025 0.125,0.355 0.2175,0.4575 0.0925,0.1 0.21375,0.15 0.36375,0.15 0.14,0 0.25625,-0.055 0.34875,-0.165 0.095,-0.11 0.1425,-0.245 0.1425,-0.405 0,-0.1475 -0.0475,-0.275 -0.1425,-0.3825 -0.0925,-0.1075 -0.20375,-0.16125 -0.33375,-0.16125 -0.0625,0 -0.125,0.015 -0.1875,0.045 -0.06,0.03 -0.10875,0.0613 -0.14625,0.0937 -0.0375,0.03 -0.0788,0.0762 -0.12375,0.13875 -0.0425,0.06 -0.07,0.1 -0.0825,0.12 -0.01,0.02 -0.0288,0.0563 -0.0563,0.10875"
         style="font-size:3.75px;text-anchor:end;fill:none;stroke:#0000ff;stroke-width:0.025;font-family:FreeMono"
         id="path9417" />
    </g>
    <g
       style="font-size:3.75px;text-anchor:end;fill:none;stroke:#0000ff;stroke-width:0.025;font-family:FreeMono"
       id="text9397">
      <path
         d="m 282.43646,203.60107 c -0.0975,0 -0.185,0.0125 -0.2625,0.0375 -0.0775,0.025 -0.14,0.0513 -0.1875,0.0788 -0.0475,0.025 -0.0825,0.0375 -0.105,0.0375 -0.0475,0 -0.0713,-0.0275 -0.0713,-0.0825 l 0,-1.00875 1.0575,0 c 0.07,1e-5 0.105,0.025 0.105,0.075 0,0.0525 -0.035,0.0788 -0.105,0.0787 l -0.90375,0 0,0.7425 c 0.1825,-0.075 0.3475,-0.11249 0.495,-0.1125 0.1925,1e-5 0.35125,0.0688 0.47625,0.20625 0.125,0.1375 0.1875,0.31125 0.1875,0.52125 0,0.2375 -0.0725,0.4325 -0.2175,0.585 -0.1425,0.15 -0.325,0.225 -0.5475,0.225 -0.0975,0 -0.195,-0.015 -0.2925,-0.045 -0.095,-0.03 -0.175,-0.065 -0.24,-0.105 -0.0625,-0.0425 -0.11375,-0.0838 -0.15375,-0.12375 -0.04,-0.04 -0.06,-0.07 -0.06,-0.09 0,-0.02 0.007,-0.0375 0.0225,-0.0525 0.015,-0.015 0.0325,-0.0225 0.0525,-0.0225 0.0175,0 0.0525,0.0238 0.105,0.0713 0.0525,0.0475 0.1275,0.095 0.225,0.1425 0.0975,0.0475 0.20875,0.0713 0.33375,0.0713 0.1825,0 0.33125,-0.0613 0.44625,-0.18375 0.115,-0.1225 0.1725,-0.2825 0.1725,-0.48 0,-0.1675 -0.05,-0.30375 -0.15,-0.40875 -0.0975,-0.105 -0.225,-0.1575 -0.3825,-0.1575"
         style="font-size:3.75px;text-anchor:end;fill:none;stroke:#0000ff;stroke-width:0.025;font-family:FreeMono"
         id="path9420" />
    </g>
    <g
       style="font-size:3.75px;text-anchor:end;fill:none;stroke:#0000ff;stroke-width:0.025;font-family:FreeMono"
       id="text9399">
      <path
         d="m 282.66146,165.0091 -1.01625,0 0,-0.17625 0.855,-1.455 0.315,0 0,1.4775 0.1275,0 c 0.0675,0 0.10125,0.0263 0.10125,0.0788 0,0.05 -0.0338,0.075 -0.10125,0.075 l -0.1275,0 0,0.48 0.1275,0 c 0.0675,0 0.10125,0.025 0.10125,0.075 0,0.0525 -0.0338,0.0788 -0.10125,0.0788 l -0.56625,0 c -0.0675,0 -0.10125,-0.0263 -0.10125,-0.0788 0,-0.05 0.0337,-0.075 0.10125,-0.075 l 0.285,0 0,-0.48 m 0,-0.15375 0,-1.32375 -0.09,0 -0.78,1.32375 0.87,0"
         style="font-size:3.75px;text-anchor:end;fill:none;stroke:#0000ff;stroke-width:0.025;font-family:FreeMono"
         id="path9423" />
    </g>
    <g
       style="font-size:3.75px;text-anchor:end;fill:none;stroke:#0000ff;stroke-width:0.025;font-family:FreeMono"
       id="text9401">
      <path
         d="m 281.72021,124.37714 c 0,-0.0275 0.0238,-0.0662 0.0712,-0.11625 0.05,-0.05 0.12875,-0.0988 0.23625,-0.14625 0.1075,-0.05 0.225,-0.075 0.3525,-0.075 0.1875,0 0.34375,0.0562 0.46875,0.16875 0.1275,0.11 0.19125,0.24625 0.19125,0.40875 0,0.1075 -0.0337,0.20625 -0.10125,0.29625 -0.065,0.09 -0.15375,0.15875 -0.26625,0.20625 -0.002,0 -0.009,0.002 -0.0188,0.007 0.1475,0.06 0.2625,0.14375 0.345,0.25125 0.0825,0.105 0.12375,0.22125 0.12375,0.34875 0,0.19 -0.0775,0.3525 -0.2325,0.4875 -0.1525,0.1325 -0.33625,0.19875 -0.55125,0.19875 -0.1475,0 -0.30625,-0.0363 -0.47625,-0.10875 -0.1675,-0.075 -0.25125,-0.14375 -0.25125,-0.20625 0,-0.0175 0.007,-0.0337 0.0225,-0.0487 0.015,-0.015 0.0312,-0.0225 0.0487,-0.0225 0.0175,0 0.0525,0.02 0.105,0.06 0.0525,0.0375 0.1275,0.0763 0.225,0.11625 0.0975,0.0375 0.2075,0.0563 0.33,0.0563 0.17,0 0.31625,-0.0525 0.43875,-0.1575 0.125,-0.105 0.1875,-0.23 0.1875,-0.375 0,-0.1475 -0.0662,-0.27375 -0.19875,-0.37875 -0.1325,-0.1075 -0.29,-0.16125 -0.4725,-0.16125 -0.0675,0 -0.10125,-0.0263 -0.10125,-0.0787 0,-0.05 0.0337,-0.075 0.10125,-0.075 0.16,0 0.26875,-0.0138 0.32625,-0.0412 0.08,-0.035 0.14375,-0.0863 0.19125,-0.15375 0.0475,-0.0675 0.0713,-0.14 0.0713,-0.2175 0,-0.1225 -0.0487,-0.22375 -0.14625,-0.30375 -0.0975,-0.0825 -0.21875,-0.12375 -0.36375,-0.12375 -0.105,0 -0.195,0.0138 -0.27,0.0413 -0.0725,0.025 -0.12375,0.0538 -0.15375,0.0863 -0.0275,0.0325 -0.055,0.0625 -0.0825,0.09 -0.0275,0.025 -0.0525,0.0375 -0.075,0.0375 -0.02,0 -0.0375,-0.006 -0.0525,-0.0187 -0.015,-0.015 -0.0225,-0.0325 -0.0225,-0.0525"
         style="font-size:3.75px;text-anchor:end;fill:none;stroke:#0000ff;stroke-width:0.025;font-family:FreeMono"
         id="path9426" />
    </g>
    <g
       style="font-size:3.75px;text-anchor:end;fill:none;stroke:#0000ff;stroke-width:0.025;font-family:FreeMono"
       id="text9403">
      <path
         d="m 281.64146,85.308926 c 0,-0.112498 0.0675,-0.232498 0.2025,-0.36 0.1375,-0.129997 0.3025,-0.194997 0.495,-0.195 0.1825,3e-6 0.3425,0.065 0.48,0.195 0.14,0.130002 0.21,0.280002 0.21,0.45 0,0.110002 -0.0325,0.211252 -0.0975,0.30375 -0.0625,0.0925 -0.21,0.252502 -0.4425,0.48 -0.32,0.315001 -0.57875,0.556251 -0.77625,0.72375 l 0,0.01125 1.1775,0 0,-0.135 c 0,-0.0675 0.0262,-0.101249 0.0787,-0.10125 0.05,10e-7 0.075,0.03375 0.075,0.10125 l 0,0.28875 -1.4775,0 0,-0.225 0.885,-0.8325 c 0.175,-0.172498 0.28875,-0.297498 0.34125,-0.375 0.055,-0.0775 0.0825,-0.158748 0.0825,-0.24375 0,-0.129998 -0.0537,-0.243748 -0.16125,-0.34125 -0.1075,-0.0975 -0.2325,-0.146247 -0.375,-0.14625 -0.1275,3e-6 -0.24375,0.0375 -0.34875,0.1125 -0.1025,0.075 -0.16875,0.168752 -0.19875,0.28125 -0.015,0.05 -0.0412,0.075 -0.0787,0.075 -0.0175,2e-6 -0.0337,-0.0062 -0.0488,-0.01875 -0.015,-0.015 -0.0225,-0.03125 -0.0225,-0.04875"
         style="font-size:3.75px;text-anchor:end;fill:none;stroke:#0000ff;stroke-width:0.025;font-family:FreeMono"
         id="path9429" />
    </g>
    <g
       style="font-size:3.75px;text-anchor:end;fill:none;stroke:#0000ff;stroke-width:0.025;font-family:FreeMono"
       id="text9405">
      <path
         d="m 282.45521,45.490713 0,2.14125 0.52125,0 c 0.0675,0 0.10125,0.025 0.10125,0.075 0,0.0525 -0.0337,0.07875 -0.10125,0.07875 l -1.19625,0 c -0.07,0 -0.105,-0.02625 -0.105,-0.07875 0,-0.05 0.035,-0.075 0.105,-0.075 l 0.52125,0 0,-1.935 -0.495,0.1575 c -0.03,0.0075 -0.0475,0.01125 -0.0525,0.01125 -0.0175,2e-6 -0.0337,-0.0075 -0.0487,-0.0225 -0.015,-0.0175 -0.0225,-0.035 -0.0225,-0.0525 0,-0.0375 0.0263,-0.065 0.0788,-0.0825 l 0.69375,-0.2175"
         style="font-size:3.75px;text-anchor:end;fill:none;stroke:#0000ff;stroke-width:0.025;font-family:FreeMono"
         id="path9432" />
    </g>
  </g>
</svg>
